<svg width="24" height="24" viewBox="0 0 24 24" fill="none" xmlns="http://www.w3.org/2000/svg">
<path fillRule="evenodd" clipRule="evenodd" d="M14.2929 5.29289C14.6834 4.90237 15.3166 4.90237 15.7071 5.29289L20.7071 10.2929C21.0976 10.6834 21.0976 11.3166 20.7071 11.7071L15.7071 16.7071C15.3166 17.0976 14.6834 17.0976 14.2929 16.7071C13.9024 16.3166 13.9024 15.6834 14.2929 15.2929L18.5858 11L14.2929 6.70711C13.9024 6.31658 13.9024 5.68342 14.2929 5.29289ZM9.70711 5.29289C10.0976 5.68342 10.0976 6.31658 9.70711 6.70711L5.41421 11L9.70711 15.2929C10.0976 15.6834 10.0976 16.3166 9.70711 16.7071C9.31658 17.0976 8.68342 17.0976 8.29289 16.7071L3.29289 11.7071C2.90237 11.3166 2.90237 10.6834 3.29289 10.2929L8.29289 5.29289C8.68342 4.90237 9.31658 4.90237 9.70711 5.29289Z" fill="currentColor"/>
</svg>